# xmcd
#
# Track frame offsets:
#	150
#	13432
#	25285
#	37085
#	48267
#	60830
#	71122
#	81835
#	94380
#	106867
#	118260
#	128912
#	140220
#	151982
#	165055
#	177727
#	188505
#	198452
#	210812
#
# Disc length: 2994 seconds
#
# Revision: 0
# Processed by: cddbd v1.5.2PL0 Copyright (c) Steve Scherf et al.
# Submitted via: dBpowerAMP V4.0
#
DISCID=0a0bb013
DTITLE=Little Esther - The Chronological Little Esther 1952 - 1953
DYEAR=1900
DGENRE=Rhythm and Blues
TTITLE0=Hollerin And Screamin'
TTITLE1=Saturday Night Daddy
TTITLE2=Mainliner
TTITLE3=You Took My Love Too Fast
TTITLE4=Last Laugh Blues
TTITLE5=Flesh Blood And Bones
TTITLE6=Turn The Lamps Down Low
TTITLE7=Street Lights
TTITLE8=Ooh Midnight
TTITLE9=Sweet Lips
TTITLE10=Cherry Wine
TTITLE11=Love Oh Love
TTITLE12=Hound Dog
TTITLE13=If You Want Me
TTITLE14=Talkin' All Out Of My Head
TTITLE15=Sit Back Down
TTITLE16=He's A No Good Man
TTITLE17=Stop Cryin'
TTITLE18=Please Don't Send Me
EXTD=
EXTT0=
EXTT1=
EXTT2=
EXTT3=
EXTT4=
EXTT5=
EXTT6=
EXTT7=
EXTT8=
EXTT9=
EXTT10=
EXTT11=
EXTT12=
EXTT13=
EXTT14=
EXTT15=
EXTT16=
EXTT17=
EXTT18=
PLAYORDER=
